<svg width="32" height="32" viewBox="0 0 32 32" fill="none" xmlns="http://www.w3.org/2000/svg">
<rect x="6" y="6" width="21" height="20" fill="#212121"/>
<path d="M21.3333 2.66663H10.6666C5.33329 2.66663 2.66663 5.33329 2.66663 10.6666V28C2.66663 28.7333 3.26663 29.3333 3.99996 29.3333H21.3333C26.6666 29.3333 29.3333 26.6666 29.3333 21.3333V10.6666C29.3333 5.33329 26.6666 2.66663 21.3333 2.66663ZM14.8133 22.2133C14.48 22.5466 13.8666 22.8533 13.4133 22.92L10.64 23.3066C10.5333 23.32 10.4266 23.3333 10.3333 23.3333C9.86663 23.3333 9.43996 23.1733 9.13329 22.8666C8.75996 22.4933 8.59996 21.9466 8.69329 21.36L9.07996 18.5866C9.14663 18.1333 9.45329 17.5066 9.78663 17.1866L14.8133 12.16C14.8933 12.4 15 12.64 15.12 12.9066C15.24 13.1466 15.36 13.3866 15.4933 13.6133C15.6 13.8 15.72 13.9866 15.8266 14.12C15.96 14.32 16.0933 14.4933 16.1866 14.5866C16.24 14.6666 16.2933 14.72 16.3066 14.7466C16.6 15.08 16.9066 15.4 17.2 15.64C17.28 15.72 17.3333 15.76 17.3466 15.7733C17.52 15.9066 17.68 16.0533 17.84 16.1466C18.0133 16.28 18.2 16.4 18.3866 16.5066C18.6133 16.64 18.8533 16.7733 19.1066 16.8933C19.36 17.0133 19.6 17.1066 19.84 17.1866L14.8133 22.2133ZM22.0666 14.9733L21.0266 16.0133C20.96 16.08 20.8666 16.12 20.7733 16.12C20.7466 16.12 20.6933 16.12 20.6666 16.1066C18.3733 15.4533 16.5466 13.6266 15.8933 11.3333C15.8533 11.2133 15.8933 11.08 15.9866 10.9866L17.04 9.93329C18.76 8.21329 20.3866 8.25329 22.0666 9.93329C22.92 10.7866 23.3466 11.6133 23.3333 12.4666C23.3333 13.3066 22.92 14.12 22.0666 14.9733Z" fill="#2563EB"/>
</svg>
