<svg width="24" height="24" viewBox="0 0 24 24" fill="none" xmlns="http://www.w3.org/2000/svg">
<mask id="mask0_6045_700" style="mask-type:alpha" maskUnits="userSpaceOnUse" x="1" y="0" width="22" height="23">
<path d="M22.5673 9.93704C22.7047 10.6734 22.7796 11.4433 22.7796 12.2468C22.7796 18.5312 18.5735 22.9998 12.2209 22.9998C10.7763 23.0003 9.34569 22.716 8.01091 22.1634C6.67613 21.6107 5.46332 20.8005 4.44179 19.779C3.42026 18.7574 2.61002 17.5446 2.05738 16.2099C1.50473 14.8751 1.22051 13.4445 1.22095 11.9998C1.22051 10.5552 1.50473 9.12456 2.05738 7.78978C2.61002 6.455 3.42026 5.24219 4.44179 4.22066C5.46332 3.19913 6.67613 2.38889 8.01091 1.83625C9.34569 1.2836 10.7763 0.999377 12.2209 0.999817C15.1911 0.999817 17.6729 2.09267 19.577 3.86715L16.4761 6.96802V6.9602C15.3218 5.86065 13.8569 5.29634 12.2209 5.29634C8.59153 5.29634 5.64151 8.36258 5.64151 11.9931C5.64151 15.6225 8.59153 18.6955 12.2209 18.6955C15.514 18.6955 17.7556 16.8126 18.216 14.2269H12.2209V9.93704H22.5684H22.5673Z" fill="white"/>
</mask>
<g mask="url(#mask0_6045_700)">
<rect x="0.00244141" y="-6.10352e-05" width="24" height="24" fill="#FAFAFA"/>
</g>
</svg>
