<svg width="93" height="16" viewBox="0 0 93 16" fill="none" xmlns="http://www.w3.org/2000/svg">
<path d="M5.98 15.38C5.03333 15.38 4.15333 15.2067 3.34 14.86C2.54 14.5133 1.84667 14.0333 1.26 13.42C0.686666 12.7933 0.266666 12.0667 -6.70552e-07 11.24L2.26 10.26C2.62 11.1133 3.14 11.7867 3.82 12.28C4.5 12.76 5.26667 13 6.12 13C6.6 13 7.01333 12.9267 7.36 12.78C7.72 12.62 7.99333 12.4067 8.18 12.14C8.38 11.8733 8.48 11.5533 8.48 11.18C8.48 10.74 8.34667 10.38 8.08 10.1C7.82667 9.80668 7.44 9.58001 6.92 9.42001L4.06 8.50001C2.9 8.14001 2.02667 7.60001 1.44 6.88001C0.853333 6.16001 0.559999 5.31335 0.559999 4.34001C0.559999 3.48668 0.766666 2.73335 1.18 2.08001C1.60667 1.42668 2.19333 0.920014 2.94 0.560014C3.7 0.186681 4.56667 1.40667e-05 5.54 1.40667e-05C6.43333 1.40667e-05 7.25333 0.160014 8 0.480014C8.74667 0.786681 9.38667 1.22001 9.92 1.78001C10.4667 2.32668 10.8733 2.97335 11.14 3.72001L8.9 4.72001C8.60667 3.97335 8.16667 3.40001 7.58 3.00001C6.99333 2.58668 6.31333 2.38001 5.54 2.38001C5.08667 2.38001 4.68667 2.46001 4.34 2.62001C3.99333 2.76668 3.72 2.98001 3.52 3.26001C3.33333 3.52668 3.24 3.84668 3.24 4.22001C3.24 4.63335 3.37333 5.00001 3.64 5.32001C3.90667 5.62668 4.31333 5.86668 4.86 6.04001L7.6 6.90001C8.78667 7.28668 9.67333 7.82001 10.26 8.50001C10.86 9.18001 11.16 10.02 11.16 11.02C11.16 11.8733 10.94 12.6267 10.5 13.28C10.06 13.9333 9.45333 14.4467 8.68 14.82C7.90667 15.1933 7.00667 15.38 5.98 15.38ZM13.6092 15.14V0.240013H16.3292V15.14H13.6092ZM19.1952 15.14V0.240013H29.1352V2.64001H21.9152V6.76001H28.2352V9.16001H21.9152V15.14H19.1952ZM33.5539 15.14V2.64001H29.6939V0.240013H40.0939V2.64001H36.2939V15.14H33.5539ZM41.7537 15.14V0.240013H44.4737V15.14H41.7537ZM50.2397 15.14V1.74001H46.1197V0.240013H55.9197V1.74001H51.8397V15.14H50.2397ZM55.358 15.14L60.798 0.240013H62.518L67.958 15.14H66.278L64.998 11.5H58.338L57.038 15.14H55.358ZM58.858 10H64.438L61.418 1.44001H61.898L58.858 10ZM69.9448 15.14V0.240013H75.0648C76.0382 0.240013 76.8915 0.433347 77.6248 0.820014C78.3582 1.19335 78.9248 1.72668 79.3248 2.42001C79.7382 3.10001 79.9448 3.89335 79.9448 4.80001C79.9448 5.70668 79.7382 6.50001 79.3248 7.18001C78.9248 7.86001 78.3582 8.39335 77.6248 8.78001C76.9048 9.15335 76.0515 9.34001 75.0648 9.34001H71.5448V15.14H69.9448ZM71.5448 7.84001H75.1448C75.7848 7.84001 76.3448 7.72001 76.8248 7.48001C77.3048 7.22668 77.6782 6.87335 77.9448 6.42001C78.2115 5.95335 78.3448 5.40668 78.3448 4.78001C78.3448 4.15335 78.2115 3.61335 77.9448 3.16001C77.6782 2.70668 77.3048 2.36001 76.8248 2.12001C76.3448 1.86668 75.7848 1.74001 75.1448 1.74001H71.5448V7.84001ZM82.7964 15.14V0.240013H87.9164C88.8897 0.240013 89.7431 0.433347 90.4764 0.820014C91.2097 1.19335 91.7764 1.72668 92.1764 2.42001C92.5897 3.10001 92.7964 3.89335 92.7964 4.80001C92.7964 5.70668 92.5897 6.50001 92.1764 7.18001C91.7764 7.86001 91.2097 8.39335 90.4764 8.78001C89.7564 9.15335 88.9031 9.34001 87.9164 9.34001H84.3964V15.14H82.7964ZM84.3964 7.84001H87.9964C88.6364 7.84001 89.1964 7.72001 89.6764 7.48001C90.1564 7.22668 90.5297 6.87335 90.7964 6.42001C91.0631 5.95335 91.1964 5.40668 91.1964 4.78001C91.1964 4.15335 91.0631 3.61335 90.7964 3.16001C90.5297 2.70668 90.1564 2.36001 89.6764 2.12001C89.1964 1.86668 88.6364 1.74001 87.9964 1.74001H84.3964V7.84001Z" fill="#066A56"/>
</svg>
