<svg width="285" height="256" viewBox="0 0 285 256" fill="none" xmlns="http://www.w3.org/2000/svg">
<path d="M225.745 254.5H283.49C283.49 254.5 283.49 223.031 283.49 202.867" stroke="#0D9488" stroke-width="3" stroke-linecap="round" stroke-linejoin="round"/>
<path d="M59.2453 254.5H1.5C1.5 254.5 1.5 223.031 1.5 202.867" stroke="#0D9488" stroke-width="3" stroke-linecap="round" stroke-linejoin="round"/>
<path d="M59.2453 2.36095H1.5C1.5 2.36095 1.5 33.8298 1.5 53.9935" stroke="#0D9488" stroke-width="3" stroke-linecap="round" stroke-linejoin="round"/>
<path d="M225.745 1.49999H283.49C283.49 1.49999 283.49 32.9688 283.49 53.1326" stroke="#0D9488" stroke-width="3" stroke-linecap="round" stroke-linejoin="round"/>
<path d="M19.676 234.5L24.028 222.58H25.404L29.756 234.5H28.412L27.388 231.588H22.06L21.02 234.5H19.676ZM22.476 230.388H26.94L24.524 223.54H24.908L22.476 230.388ZM31.3455 234.5V222.58H32.6255V233.3H37.9055V234.5H31.3455ZM39.8455 234.5V222.58H41.1255V234.5H39.8455ZM49.3793 234.692C48.5366 234.692 47.7633 234.543 47.0593 234.244C46.3553 233.935 45.742 233.508 45.2193 232.964C44.7073 232.409 44.3073 231.759 44.0193 231.012C43.7313 230.265 43.5873 229.444 43.5873 228.548C43.5873 227.652 43.7313 226.831 44.0193 226.084C44.3073 225.337 44.7073 224.687 45.2193 224.132C45.742 223.577 46.3553 223.151 47.0593 222.852C47.7633 222.543 48.5366 222.388 49.3793 222.388C50.19 222.388 50.9153 222.532 51.5553 222.82C52.206 223.108 52.75 223.481 53.1873 223.94C53.6353 224.388 53.9553 224.863 54.1473 225.364L52.9953 225.924C52.6966 225.199 52.238 224.628 51.6193 224.212C51.0006 223.796 50.254 223.588 49.3793 223.588C48.5046 223.588 47.726 223.796 47.0433 224.212C46.3606 224.628 45.8273 225.209 45.4433 225.956C45.0593 226.692 44.8673 227.556 44.8673 228.548C44.8673 229.529 45.0593 230.393 45.4433 231.14C45.8273 231.887 46.3606 232.468 47.0433 232.884C47.726 233.289 48.5046 233.492 49.3793 233.492C50.158 233.492 50.8566 233.321 51.4753 232.98C52.1046 232.639 52.6006 232.175 52.9633 231.588C53.326 230.991 53.5073 230.308 53.5073 229.54V228.884L54.0833 229.46H49.3793V228.34H54.7873V229.332C54.7873 230.111 54.6486 230.831 54.3713 231.492C54.094 232.143 53.71 232.708 53.2193 233.188C52.7286 233.668 52.1526 234.041 51.4913 234.308C50.8406 234.564 50.1366 234.692 49.3793 234.692ZM57.0799 234.5V222.58H58.1999L65.1919 232.612H64.7599V222.58H66.0399V234.5H64.9199L57.9279 224.404H58.3599V234.5H57.0799ZM71.5799 234.5V222.58H76.5879C77.2599 222.58 77.8412 222.708 78.3319 222.964C78.8332 223.209 79.2172 223.556 79.4839 224.004C79.7612 224.452 79.8999 224.975 79.8999 225.572C79.8999 226.191 79.7452 226.74 79.4359 227.22C79.1372 227.689 78.7052 228.047 78.1399 228.292L78.1239 227.908C78.5932 228.079 78.9932 228.319 79.3239 228.628C79.6652 228.937 79.9266 229.3 80.1079 229.716C80.2892 230.121 80.3799 230.559 80.3799 231.028C80.3799 232.095 80.0386 232.943 79.3559 233.572C78.6839 234.191 77.7666 234.5 76.6039 234.5H71.5799ZM72.8599 233.3H76.6039C77.3612 233.3 77.9639 233.103 78.4119 232.708C78.8706 232.303 79.0999 231.748 79.0999 231.044C79.0999 230.351 78.8706 229.801 78.4119 229.396C77.9639 228.98 77.3612 228.772 76.6039 228.772H72.8599V233.3ZM72.8599 227.62H76.4919C77.1319 227.62 77.6439 227.433 78.0279 227.06C78.4226 226.687 78.6199 226.207 78.6199 225.62C78.6199 225.023 78.4226 224.569 78.0279 224.26C77.6439 223.94 77.1319 223.78 76.4919 223.78H72.8599V227.62ZM81.4417 234.5L85.7937 222.58H87.1697L91.5217 234.5H90.1777L89.1537 231.588H83.8257L82.7857 234.5H81.4417ZM84.2417 230.388H88.7057L86.2897 223.54H86.6737L84.2417 230.388ZM93.1112 234.5V222.58H97.2072C97.9858 222.58 98.6685 222.735 99.2552 223.044C99.8418 223.343 100.295 223.769 100.615 224.324C100.946 224.868 101.111 225.503 101.111 226.228C101.111 227.071 100.887 227.791 100.439 228.388C100.002 228.985 99.4045 229.407 98.6472 229.652L101.431 234.5H99.9272L97.0152 229.364L97.8792 229.86H94.3912V234.5H93.1112ZM94.3912 228.66H97.2712C97.7832 228.66 98.2312 228.564 98.6152 228.372C98.9992 228.169 99.2978 227.887 99.5112 227.524C99.7245 227.151 99.8312 226.713 99.8312 226.212C99.8312 225.711 99.7245 225.279 99.5112 224.916C99.2978 224.553 98.9992 224.276 98.6152 224.084C98.2312 223.881 97.7832 223.78 97.2712 223.78H94.3912V228.66ZM108.801 234.692C107.958 234.692 107.185 234.543 106.481 234.244C105.777 233.935 105.164 233.508 104.641 232.964C104.129 232.409 103.729 231.759 103.441 231.012C103.153 230.265 103.009 229.444 103.009 228.548C103.009 227.652 103.153 226.831 103.441 226.084C103.729 225.337 104.129 224.687 104.641 224.132C105.164 223.577 105.777 223.151 106.481 222.852C107.185 222.543 107.958 222.388 108.801 222.388C109.612 222.388 110.337 222.532 110.977 222.82C111.628 223.108 112.172 223.481 112.609 223.94C113.057 224.388 113.377 224.863 113.569 225.364L112.369 225.892C112.07 225.199 111.612 224.644 110.993 224.228C110.385 223.801 109.654 223.588 108.801 223.588C107.926 223.588 107.148 223.796 106.465 224.212C105.782 224.628 105.249 225.209 104.865 225.956C104.481 226.692 104.289 227.556 104.289 228.548C104.289 229.529 104.481 230.393 104.865 231.14C105.249 231.887 105.782 232.468 106.465 232.884C107.148 233.289 107.926 233.492 108.801 233.492C109.654 233.492 110.385 233.284 110.993 232.868C111.612 232.452 112.07 231.897 112.369 231.204L113.569 231.732C113.377 232.223 113.057 232.697 112.609 233.156C112.172 233.604 111.628 233.972 110.977 234.26C110.337 234.548 109.612 234.692 108.801 234.692ZM121.477 234.692C120.645 234.692 119.866 234.543 119.141 234.244C118.426 233.935 117.797 233.508 117.253 232.964C116.709 232.409 116.282 231.759 115.973 231.012C115.664 230.255 115.509 229.428 115.509 228.532C115.509 227.636 115.664 226.815 115.973 226.068C116.282 225.311 116.709 224.66 117.253 224.116C117.797 223.561 118.426 223.135 119.141 222.836C119.866 222.537 120.645 222.388 121.477 222.388C122.309 222.388 123.082 222.543 123.797 222.852C124.522 223.151 125.157 223.577 125.701 224.132C126.245 224.676 126.672 225.321 126.981 226.068C127.29 226.815 127.445 227.636 127.445 228.532C127.445 229.428 127.29 230.255 126.981 231.012C126.672 231.759 126.245 232.409 125.701 232.964C125.157 233.508 124.522 233.935 123.797 234.244C123.082 234.543 122.309 234.692 121.477 234.692ZM121.477 233.492C122.17 233.492 122.8 233.364 123.365 233.108C123.941 232.852 124.437 232.495 124.853 232.036C125.269 231.577 125.589 231.049 125.813 230.452C126.048 229.855 126.165 229.215 126.165 228.532C126.165 227.86 126.048 227.225 125.813 226.628C125.589 226.031 125.269 225.503 124.853 225.044C124.437 224.585 123.941 224.228 123.365 223.972C122.8 223.716 122.17 223.588 121.477 223.588C120.784 223.588 120.149 223.716 119.573 223.972C119.008 224.228 118.517 224.585 118.101 225.044C117.685 225.503 117.36 226.031 117.125 226.628C116.901 227.225 116.789 227.86 116.789 228.532C116.789 229.215 116.901 229.855 117.125 230.452C117.36 231.049 117.685 231.577 118.101 232.036C118.517 232.495 119.013 232.852 119.589 233.108C120.165 233.364 120.794 233.492 121.477 233.492ZM129.908 234.5V222.58H133.828C135.012 222.58 136.041 222.825 136.916 223.316C137.791 223.796 138.468 224.484 138.948 225.38C139.428 226.265 139.668 227.316 139.668 228.532C139.668 229.737 139.428 230.788 138.948 231.684C138.468 232.58 137.791 233.273 136.916 233.764C136.041 234.255 135.012 234.5 133.828 234.5H129.908ZM131.188 233.3H133.828C134.745 233.3 135.54 233.108 136.212 232.724C136.884 232.329 137.401 231.775 137.764 231.06C138.137 230.345 138.324 229.503 138.324 228.532C138.324 227.561 138.137 226.724 137.764 226.02C137.391 225.305 136.868 224.756 136.196 224.372C135.524 223.977 134.735 223.78 133.828 223.78H131.188V233.3ZM141.783 234.5V222.58H149.463V223.78H143.063V227.924H149.143V229.124H143.063V233.3H149.463V234.5H141.783ZM156.491 234.5L153.067 222.58H154.363L157.323 233.252H157.051L160.091 222.58H161.451L164.475 233.252H164.187L167.163 222.58H168.459L165.035 234.5H163.675L160.619 223.78H160.907L157.851 234.5H156.491ZM170.049 234.5V222.58H171.329V234.5H170.049ZM176.206 234.5V223.78H172.91V222.58H180.75V223.78H177.486V234.5H176.206ZM182.33 234.5V222.58H183.61V227.94H190.01V222.58H191.29V234.5H190.01V229.14H183.61V234.5H182.33ZM194.111 234.5V222.58H195.391V234.5H194.111ZM198.205 234.5V222.58H199.325L206.317 232.612H205.885V222.58H207.165V234.5H206.045L199.053 224.404H199.485V234.5H198.205ZM212.705 234.5V222.58H220.065V223.78H213.985V227.924H219.585V229.124H213.985V234.5H212.705ZM222.002 234.5V222.58H226.098C226.876 222.58 227.559 222.735 228.146 223.044C228.732 223.343 229.186 223.769 229.506 224.324C229.836 224.868 230.002 225.503 230.002 226.228C230.002 227.071 229.778 227.791 229.33 228.388C228.892 228.985 228.295 229.407 227.538 229.652L230.322 234.5H228.818L225.906 229.364L226.77 229.86H223.282V234.5H222.002ZM223.282 228.66H226.162C226.674 228.66 227.122 228.564 227.506 228.372C227.89 228.169 228.188 227.887 228.402 227.524C228.615 227.151 228.722 226.713 228.722 226.212C228.722 225.711 228.615 225.279 228.402 224.916C228.188 224.553 227.89 224.276 227.506 224.084C227.122 223.881 226.674 223.78 226.162 223.78H223.282V228.66ZM231.02 234.5L235.372 222.58H236.748L241.1 234.5H239.756L238.732 231.588H233.404L232.364 234.5H231.02ZM233.82 230.388H238.284L235.868 223.54H236.252L233.82 230.388ZM242.689 234.5V222.58H243.809L248.289 229.076H247.665L252.129 222.58H253.249V234.5H251.969V224.308L252.385 224.468L248.001 230.82H247.937L243.569 224.468L243.969 224.308V234.5H242.689ZM256.064 234.5V222.58H263.744V223.78H257.344V227.924H263.424V229.124H257.344V233.3H263.744V234.5H256.064Z" fill="#FFFFFF"/>
</svg>
